{
    "asset" : {
        "generator" : "Khronos glTF Blender I/O v3.4.50",
        "version" : "2.0"
    },
    "extensionsUsed" : [
        "KHR_materials_specular",
        "KHR_materials_ior"
    ],
    "scene" : 0,
    "scenes" : [
        {
            "name" : "Scene",
            "nodes" : [
                0,
                2,
                3,
                4,
                5,
                6
            ]
        }
    ],
    "nodes" : [
        {
            "mesh" : 0,
            "name" : "star"
        },
        {
            "name" : "JovianStormPath",
            "scale" : [
                0.9296739101409912,
                0.9296739101409912,
                0.9296739101409912
            ]
        },
        {
            "children" : [
                1
            ],
            "mesh" : 1,
            "name" : "Jovian",
            "translation" : [
                3,
                0,
                -2.860964968931512e-06
            ]
        },
        {
            "mesh" : 2,
            "name" : "Terrestrial",
            "translation" : [
                0,
                0,
                2
            ]
        },
        {
            "name" : "JovianOrbital"
        },
        {
            "name" : "TerrestrialPath"
        },
        {
            "name" : "JovianStormEmpty",
            "scale" : [
                1.195182204246521,
                1.195182204246521,
                1.195182204246521
            ],
            "translation" : [
                3,
                0,
                0.38029909133911133
            ]
        }
    ],
    "materials" : [
        {
            "alphaMode" : "BLEND",
            "emissiveFactor" : [
                0.5,
                0.5,
                0.5
            ],
            "name" : "StarPlasma",
            "pbrMetallicRoughness" : {
                "metallicFactor" : 0
            }
        },
        {
            "doubleSided" : true,
            "emissiveFactor" : [
                0.20000000298023224,
                0.20000000298023224,
                0.20000000298023224
            ],
            "name" : "Jovian",
            "pbrMetallicRoughness" : {
                "metallicFactor" : 0
            }
        },
        {
            "doubleSided" : true,
            "extensions" : {
                "KHR_materials_specular" : {
                    "specularColorFactor" : [
                        0,
                        0,
                        0
                    ]
                },
                "KHR_materials_ior" : {
                    "ior" : 1.4500000476837158
                }
            },
            "name" : "Terrestrial",
            "pbrMetallicRoughness" : {
                "metallicFactor" : 0,
                "roughnessFactor" : 0.011363640427589417
            }
        }
    ],
    "meshes" : [
        {
            "name" : "Sphere.001",
            "primitives" : [
                {
                    "attributes" : {
                        "POSITION" : 0,
                        "TEXCOORD_0" : 1,
                        "NORMAL" : 2
                    },
                    "indices" : 3,
                    "material" : 0
                }
            ]
        },
        {
            "name" : "Jovian",
            "primitives" : [
                {
                    "attributes" : {
                        "POSITION" : 4,
                        "TEXCOORD_0" : 5,
                        "NORMAL" : 6
                    },
                    "indices" : 7,
                    "material" : 1
                }
            ]
        },
        {
            "name" : "Terrestrial",
            "primitives" : [
                {
                    "attributes" : {
                        "POSITION" : 8,
                        "TEXCOORD_0" : 9,
                        "NORMAL" : 10
                    },
                    "indices" : 11,
                    "material" : 2
                }
            ]
        }
    ],
    "accessors" : [
        {
            "bufferView" : 0,
            "componentType" : 5126,
            "count" : 4223,
            "max" : [
                0.9999998807907104,
                1,
                0.9999997615814209
            ],
            "min" : [
                -0.9999997019767761,
                -1,
                -1
            ],
            "type" : "VEC3"
        },
        {
            "bufferView" : 1,
            "componentType" : 5126,
            "count" : 4223,
            "type" : "VEC2"
        },
        {
            "bufferView" : 2,
            "componentType" : 5126,
            "count" : 4223,
            "type" : "VEC3"
        },
        {
            "bufferView" : 3,
            "componentType" : 5123,
            "count" : 24192,
            "type" : "SCALAR"
        },
        {
            "bufferView" : 4,
            "componentType" : 5126,
            "count" : 1087,
            "max" : [
                0.39999982714653015,
                0.4000000059604645,
                0.3999997079372406
            ],
            "min" : [
                -0.39999961853027344,
                -0.4000000059604645,
                -0.4000000059604645
            ],
            "type" : "VEC3"
        },
        {
            "bufferView" : 5,
            "componentType" : 5126,
            "count" : 1087,
            "type" : "VEC2"
        },
        {
            "bufferView" : 6,
            "componentType" : 5126,
            "count" : 1087,
            "type" : "VEC3"
        },
        {
            "bufferView" : 7,
            "componentType" : 5123,
            "count" : 5952,
            "type" : "SCALAR"
        },
        {
            "bufferView" : 8,
            "componentType" : 5126,
            "count" : 1087,
            "max" : [
                0.12025158852338791,
                0.1202516257762909,
                0.12025154381990433
            ],
            "min" : [
                -0.12025151401758194,
                -0.1202516257762909,
                -0.12025148421525955
            ],
            "type" : "VEC3"
        },
        {
            "bufferView" : 9,
            "componentType" : 5126,
            "count" : 1087,
            "type" : "VEC2"
        },
        {
            "bufferView" : 10,
            "componentType" : 5126,
            "count" : 1087,
            "type" : "VEC3"
        },
        {
            "bufferView" : 11,
            "componentType" : 5123,
            "count" : 5952,
            "type" : "SCALAR"
        }
    ],
    "bufferViews" : [
        {
            "buffer" : 0,
            "byteLength" : 50676,
            "byteOffset" : 0,
            "target" : 34962
        },
        {
            "buffer" : 0,
            "byteLength" : 33784,
            "byteOffset" : 50676,
            "target" : 34962
        },
        {
            "buffer" : 0,
            "byteLength" : 50676,
            "byteOffset" : 84460,
            "target" : 34962
        },
        {
            "buffer" : 0,
            "byteLength" : 48384,
            "byteOffset" : 135136,
            "target" : 34963
        },
        {
            "buffer" : 0,
            "byteLength" : 13044,
            "byteOffset" : 183520,
            "target" : 34962
        },
        {
            "buffer" : 0,
            "byteLength" : 8696,
            "byteOffset" : 196564,
            "target" : 34962
        },
        {
            "buffer" : 0,
            "byteLength" : 13044,
            "byteOffset" : 205260,
            "target" : 34962
        },
        {
            "buffer" : 0,
            "byteLength" : 11904,
            "byteOffset" : 218304,
            "target" : 34963
        },
        {
            "buffer" : 0,
            "byteLength" : 13044,
            "byteOffset" : 230208,
            "target" : 34962
        },
        {
            "buffer" : 0,
            "byteLength" : 8696,
            "byteOffset" : 243252,
            "target" : 34962
        },
        {
            "buffer" : 0,
            "byteLength" : 13044,
            "byteOffset" : 251948,
            "target" : 34962
        },
        {
            "buffer" : 0,
            "byteLength" : 11904,
            "byteOffset" : 264992,
            "target" : 34963
        }
    ],
    "buffers" : [
        {
            "byteLength" : 276896,
            "uri" : "data:application/octet-stream;base64,"
        }
    ]
}
